# xmcd
#
# Track frame offsets: 
#        150
#        9370
#        24000
#        38627
#        54020
#        65890
#        87510
#        99665
#        118940
#        131462
#        144377
#        164647
#        178805
#        198890
#
# Disc length: 3270 seconds
#
# Revision: 7
# Processed by: cddbd v1.5.1PL0 Copyright (c) Steve Scherf et al.
# Submitted via: ExactAudioCopy v0.95a5
#
DISCID=b80cc40e
DTITLE=The Chieftains - Down The Old Plank Road -The Nashville Session
DTITLE=s
DYEAR=2002
DGENRE=Celtic
TTITLE0=Down The Old Plank Road (feat. John Hiatt,Bela Fleck,Jeff Whit
TTITLE0=e,Tim O'Brian)
TTITLE1=Country Blues (feat. Buddy and Julie Miller )
TTITLE2=Sally Goodin (feat. Earl Scruggs)
TTITLE3=Dark As A Dungeon (feat. Vince Gill)
TTITLE4=Cindy (feat. Ricky Skaggs and Kentucky Thunder)
TTITLE5=Molly Ban (Dawn, feat. Alison Krauss)
TTITLE6=Don't Let Your Deal Go Down (feat. Lyle Lovett)
TTITLE7=Ladies Pantalettes, Belles Of Blackville, First House In Conna
TTITLE7=ught (Reels, feat. Béla Fleck)
TTITLE8=Whole Heap Of Little Horses (feat. Patty Griffin)
TTITLE9=Rain And Snow (feat. Del McCoury Band)
TTITLE10=I'll Be All Smiles Tonight (feat. Martina McBride)
TTITLE11=Tennessee Stud (feat. Jeff White)
TTITLE12=Katie Dear (feat. Gillian Welch and David Rawlings)
TTITLE13=Give The Fiddler A Dram (Finale, feat. Various Artists)
EXTD=
EXTT0=
EXTT1=
EXTT2=
EXTT3=
EXTT4=
EXTT5=
EXTT6=
EXTT7=
EXTT8=
EXTT9=
EXTT10=
EXTT11=
EXTT12=
EXTT13=
PLAYORDER=
